
<svg width="14" height="14" fill="none" xmlns="http://www.w3.org/2000/svg"><path d="M5.25 1.1667c-1.5282 0-2.7708 1.2425-2.7708 2.7708 0 1.4992 1.1725 2.7125 2.7009 2.765.0466-.0058.0933-.0058.1283 0h.0408C6.8426 6.65 8.0152 5.4367 8.021 3.9375c0-1.5283-1.2425-2.7708-2.7708-2.7708ZM8.2133 8.2542c-1.6275-1.085-4.2817-1.085-5.9208 0-.7409.4958-1.1492 1.1666-1.1492 1.8841s.4083 1.3825 1.1433 1.8725c.8167.5484 1.89.8225 2.9634.8225 1.0733 0 2.1466-.2741 2.9633-.8225.735-.4958 1.1433-1.1608 1.1433-1.8841-.0058-.7175-.4083-1.3825-1.1433-1.8725ZM11.6607 4.2816c.0933 1.1317-.7117 2.1234-1.8258 2.2576H9.8057c-.035 0-.07 0-.0991.0116-.5659.0292-1.085-.1517-1.4759-.4841.6008-.5367.945-1.3417.875-2.2167-.0408-.4725-.2042-.9042-.4492-1.2717.2217-.1108.4784-.1808.7409-.2041 1.1433-.0992 2.1641.7525 2.2633 1.9074Z" fill="currentcolor"/><path d="M12.8276 9.6775c-.0467.5658-.4084 1.0558-1.015 1.3883-.5834.3209-1.3184.4725-2.0475.455.42-.3791.665-.8516.7116-1.3533.0584-.7233-.2858-1.4175-.9741-1.9717-.3909-.3091-.8459-.5541-1.3417-.735 1.2892-.3733 2.9108-.1225 3.9083.6825.5367.4317.8109.9742.7584 1.5342Z" fill="currentcolor"/></svg>